<svg xmlns="http://www.w3.org/2000/svg" width="185" height="194" viewBox="0 0 185 194">
  <path fill="#48AD3A" d="M91 18.428c4.44-12.405 22.69-9.083 32.19-11.369s17.75-4.286 17.75-4.286-10.484 12.277-13 13.75C110.44 26.774 91 18.428 91 18.428z"/>
  <path fill="none" stroke="#95C11F" stroke-linecap="round" stroke-miterlimit="10" d="M92.018 17.909c15.979-5.301 21.854-.551 29.854-5.707"/>
  <path fill="#008D36" d="M91 18.529c10.5 6.637 5 10.887 6 14.387s.565 22.25.565 22.25h-5.42s4.645-24.191 0-30.595S91 18.529 91 18.529z"/>
  <path fill="#C6C6C6" d="M5.79 56.271h31.761l15.038 113.306s-6.557 13.374 86.119 15.965c8.893.249-11.143 4.563-11.143 4.563l-83.064.012S21.44 187.73 17 171.582C13.176 157.672 5.79 56.271 5.79 56.271z"/>
  <path fill="none" stroke="#3C3C3B" stroke-miterlimit="10" stroke-width="3" d="M87.395 188.659H48.109c-27.381 0-31.19-20-31.19-20L4.038 55.802h176.214l-22.381 112.857s-3.81 20-31.19 20H87.395z"/>
  <path stroke="#3C3C3B" stroke-linecap="round" stroke-miterlimit="10" stroke-width="2" d="M6.79 75.667H130.5M18.29 169.667H130.5M6.79 71.917H130.5M149.5 75.667h26.073M140.984 169.667h16.888M149.5 71.917h26.073"/>
  <path fill="#48AD3A" d="M84.5 13.917c34.167 12.9-61.5 20-61.75 21s37.25-30.25 61.75-21z"/>
  <path fill="none" stroke="#8ABE23" stroke-linecap="round" stroke-miterlimit="10" d="M45.421 26.749c17.864-3.7 23.578-9.618 42.333-10.667"/>
  <path fill="#48AD3A" d="M99.518 15.641c-34.167 12.9 61.5 20 61.75 21s-37.25-30.25-61.75-21z"/>
  <path fill="none" stroke="#8ABE23" stroke-linecap="round" stroke-miterlimit="10" d="M138.597 28.473c-17.864-3.7-23.578-9.618-42.333-10.667"/>
</svg>